<mxfile host="Electron" agent="Mozilla/5.0 (Windows NT 10.0; Win64; x64) AppleWebKit/537.36 (KHTML, like Gecko) draw.io/24.7.5 Chrome/126.0.6478.183 Electron/31.3.0 Safari/537.36" version="24.7.5">
  <diagram name="第 1 页" id="cLMXlADeuP2daNZaK9G1">
    <mxGraphModel dx="989" dy="577" grid="1" gridSize="10" guides="1" tooltips="1" connect="1" arrows="1" fold="1" page="1" pageScale="1" pageWidth="827" pageHeight="1169" math="0" shadow="0">
      <root>
        <mxCell id="0" />
        <mxCell id="1" parent="0" />
        <mxCell id="NMuV9sKj-YbLztwORmE9-1" value="&lt;font face=&quot;Comic Sans MS&quot;&gt;z&lt;/font&gt;" style="ellipse;whiteSpace=wrap;html=1;aspect=fixed;sketch=1;curveFitting=1;jiggle=2;" vertex="1" parent="1">
          <mxGeometry x="80" y="120" width="40" height="40" as="geometry" />
        </mxCell>
        <mxCell id="NMuV9sKj-YbLztwORmE9-2" value="&lt;font face=&quot;Comic Sans MS&quot;&gt;r&lt;/font&gt;" style="ellipse;whiteSpace=wrap;html=1;aspect=fixed;sketch=1;curveFitting=1;jiggle=2;" vertex="1" parent="1">
          <mxGeometry x="120" y="200" width="40" height="40" as="geometry" />
        </mxCell>
        <mxCell id="NMuV9sKj-YbLztwORmE9-3" value="" style="endArrow=none;html=1;rounded=0;exitX=0.5;exitY=0;exitDx=0;exitDy=0;sketch=1;curveFitting=1;jiggle=2;" edge="1" parent="1" source="NMuV9sKj-YbLztwORmE9-1">
          <mxGeometry width="50" height="50" relative="1" as="geometry">
            <mxPoint x="440" y="230" as="sourcePoint" />
            <mxPoint x="100" y="60" as="targetPoint" />
          </mxGeometry>
        </mxCell>
        <mxCell id="NMuV9sKj-YbLztwORmE9-4" value="" style="endArrow=none;html=1;rounded=0;sketch=1;curveFitting=1;jiggle=2;exitX=0.689;exitY=0.885;exitDx=0;exitDy=0;exitPerimeter=0;entryX=0.292;entryY=0.161;entryDx=0;entryDy=0;entryPerimeter=0;" edge="1" parent="1" source="NMuV9sKj-YbLztwORmE9-1" target="NMuV9sKj-YbLztwORmE9-2">
          <mxGeometry width="50" height="50" relative="1" as="geometry">
            <mxPoint x="440" y="230" as="sourcePoint" />
            <mxPoint x="490" y="180" as="targetPoint" />
          </mxGeometry>
        </mxCell>
        <mxCell id="NMuV9sKj-YbLztwORmE9-5" value="" style="endArrow=none;html=1;rounded=0;sketch=1;curveFitting=1;jiggle=2;exitX=0.051;exitY=0.816;exitDx=0;exitDy=0;exitPerimeter=0;entryX=0.603;entryY=-0.072;entryDx=0;entryDy=0;entryPerimeter=0;" edge="1" parent="1" source="NMuV9sKj-YbLztwORmE9-1" target="NMuV9sKj-YbLztwORmE9-6">
          <mxGeometry width="50" height="50" relative="1" as="geometry">
            <mxPoint x="118" y="165" as="sourcePoint" />
            <mxPoint x="50" y="210" as="targetPoint" />
          </mxGeometry>
        </mxCell>
        <mxCell id="NMuV9sKj-YbLztwORmE9-6" value="NIL" style="text;html=1;align=center;verticalAlign=middle;resizable=0;points=[];autosize=1;strokeColor=none;fillColor=none;rounded=0;fontFamily=Comic Sans MS;" vertex="1" parent="1">
          <mxGeometry x="25" y="210" width="50" height="30" as="geometry" />
        </mxCell>
        <mxCell id="NMuV9sKj-YbLztwORmE9-8" value="" style="shape=flexArrow;endArrow=classic;html=1;rounded=0;" edge="1" parent="1">
          <mxGeometry width="50" height="50" relative="1" as="geometry">
            <mxPoint x="170" y="170" as="sourcePoint" />
            <mxPoint x="300" y="170" as="targetPoint" />
          </mxGeometry>
        </mxCell>
        <mxCell id="NMuV9sKj-YbLztwORmE9-16" value="&lt;font face=&quot;Comic Sans MS&quot;&gt;Delete z&lt;/font&gt;" style="edgeLabel;html=1;align=center;verticalAlign=middle;resizable=0;points=[];" vertex="1" connectable="0" parent="NMuV9sKj-YbLztwORmE9-8">
          <mxGeometry x="0.0658" y="3" relative="1" as="geometry">
            <mxPoint as="offset" />
          </mxGeometry>
        </mxCell>
        <mxCell id="NMuV9sKj-YbLztwORmE9-9" value="&lt;font face=&quot;Comic Sans MS&quot;&gt;r&lt;/font&gt;" style="ellipse;whiteSpace=wrap;html=1;aspect=fixed;sketch=1;curveFitting=1;jiggle=2;" vertex="1" parent="1">
          <mxGeometry x="365" y="120" width="40" height="40" as="geometry" />
        </mxCell>
        <mxCell id="NMuV9sKj-YbLztwORmE9-11" value="" style="endArrow=none;html=1;rounded=0;exitX=0.5;exitY=0;exitDx=0;exitDy=0;sketch=1;curveFitting=1;jiggle=2;" edge="1" parent="1" source="NMuV9sKj-YbLztwORmE9-9">
          <mxGeometry width="50" height="50" relative="1" as="geometry">
            <mxPoint x="725" y="230" as="sourcePoint" />
            <mxPoint x="385" y="60" as="targetPoint" />
          </mxGeometry>
        </mxCell>
        <mxCell id="NMuV9sKj-YbLztwORmE9-12" value="" style="endArrow=none;html=1;rounded=0;sketch=1;curveFitting=1;jiggle=2;exitX=0.689;exitY=0.885;exitDx=0;exitDy=0;exitPerimeter=0;entryX=0.427;entryY=-0.072;entryDx=0;entryDy=0;entryPerimeter=0;" edge="1" parent="1" source="NMuV9sKj-YbLztwORmE9-9" target="NMuV9sKj-YbLztwORmE9-15">
          <mxGeometry width="50" height="50" relative="1" as="geometry">
            <mxPoint x="725" y="230" as="sourcePoint" />
            <mxPoint x="416.68000000000006" y="206.43999999999994" as="targetPoint" />
          </mxGeometry>
        </mxCell>
        <mxCell id="NMuV9sKj-YbLztwORmE9-13" value="" style="endArrow=none;html=1;rounded=0;sketch=1;curveFitting=1;jiggle=2;exitX=0.051;exitY=0.816;exitDx=0;exitDy=0;exitPerimeter=0;entryX=0.603;entryY=-0.072;entryDx=0;entryDy=0;entryPerimeter=0;" edge="1" parent="1" source="NMuV9sKj-YbLztwORmE9-9" target="NMuV9sKj-YbLztwORmE9-14">
          <mxGeometry width="50" height="50" relative="1" as="geometry">
            <mxPoint x="403" y="165" as="sourcePoint" />
            <mxPoint x="335" y="210" as="targetPoint" />
          </mxGeometry>
        </mxCell>
        <mxCell id="NMuV9sKj-YbLztwORmE9-14" value="NIL" style="text;html=1;align=center;verticalAlign=middle;resizable=0;points=[];autosize=1;strokeColor=none;fillColor=none;rounded=0;fontFamily=Comic Sans MS;" vertex="1" parent="1">
          <mxGeometry x="310" y="210" width="50" height="30" as="geometry" />
        </mxCell>
        <mxCell id="NMuV9sKj-YbLztwORmE9-15" value="NIL" style="text;html=1;align=center;verticalAlign=middle;resizable=0;points=[];autosize=1;strokeColor=none;fillColor=none;rounded=0;fontFamily=Comic Sans MS;" vertex="1" parent="1">
          <mxGeometry x="400" y="210" width="50" height="30" as="geometry" />
        </mxCell>
        <mxCell id="NMuV9sKj-YbLztwORmE9-17" value="&lt;font face=&quot;Comic Sans MS&quot;&gt;z&lt;/font&gt;" style="ellipse;whiteSpace=wrap;html=1;aspect=fixed;sketch=1;curveFitting=1;jiggle=2;" vertex="1" parent="1">
          <mxGeometry x="80" y="320" width="40" height="40" as="geometry" />
        </mxCell>
        <mxCell id="NMuV9sKj-YbLztwORmE9-18" value="&lt;font face=&quot;Comic Sans MS&quot;&gt;y&lt;/font&gt;" style="ellipse;whiteSpace=wrap;html=1;aspect=fixed;sketch=1;curveFitting=1;jiggle=2;" vertex="1" parent="1">
          <mxGeometry x="120" y="400" width="40" height="40" as="geometry" />
        </mxCell>
        <mxCell id="NMuV9sKj-YbLztwORmE9-19" value="" style="endArrow=none;html=1;rounded=0;exitX=0.5;exitY=0;exitDx=0;exitDy=0;sketch=1;curveFitting=1;jiggle=2;" edge="1" parent="1" source="NMuV9sKj-YbLztwORmE9-17">
          <mxGeometry width="50" height="50" relative="1" as="geometry">
            <mxPoint x="440" y="430" as="sourcePoint" />
            <mxPoint x="100" y="260" as="targetPoint" />
          </mxGeometry>
        </mxCell>
        <mxCell id="NMuV9sKj-YbLztwORmE9-20" value="" style="endArrow=none;html=1;rounded=0;sketch=1;curveFitting=1;jiggle=2;exitX=0.689;exitY=0.885;exitDx=0;exitDy=0;exitPerimeter=0;entryX=0.292;entryY=0.161;entryDx=0;entryDy=0;entryPerimeter=0;" edge="1" parent="1" source="NMuV9sKj-YbLztwORmE9-17" target="NMuV9sKj-YbLztwORmE9-18">
          <mxGeometry width="50" height="50" relative="1" as="geometry">
            <mxPoint x="440" y="430" as="sourcePoint" />
            <mxPoint x="490" y="380" as="targetPoint" />
          </mxGeometry>
        </mxCell>
        <mxCell id="NMuV9sKj-YbLztwORmE9-21" value="" style="endArrow=none;html=1;rounded=0;sketch=1;curveFitting=1;jiggle=2;exitX=0.051;exitY=0.816;exitDx=0;exitDy=0;exitPerimeter=0;entryX=0.706;entryY=-0.046;entryDx=0;entryDy=0;entryPerimeter=0;" edge="1" parent="1" source="NMuV9sKj-YbLztwORmE9-17" target="NMuV9sKj-YbLztwORmE9-22">
          <mxGeometry width="50" height="50" relative="1" as="geometry">
            <mxPoint x="118" y="365" as="sourcePoint" />
            <mxPoint x="55" y="408" as="targetPoint" />
          </mxGeometry>
        </mxCell>
        <mxCell id="NMuV9sKj-YbLztwORmE9-22" value="&lt;font&gt;l&lt;/font&gt;" style="ellipse;whiteSpace=wrap;html=1;aspect=fixed;sketch=1;curveFitting=1;jiggle=2;fontFamily=Comic Sans MS;" vertex="1" parent="1">
          <mxGeometry x="40" y="400" width="40" height="40" as="geometry" />
        </mxCell>
        <mxCell id="NMuV9sKj-YbLztwORmE9-23" value="&lt;font face=&quot;Comic Sans MS&quot;&gt;r&lt;/font&gt;" style="ellipse;whiteSpace=wrap;html=1;aspect=fixed;sketch=1;curveFitting=1;jiggle=2;" vertex="1" parent="1">
          <mxGeometry x="160" y="480" width="40" height="40" as="geometry" />
        </mxCell>
        <mxCell id="NMuV9sKj-YbLztwORmE9-24" value="" style="endArrow=none;html=1;rounded=0;exitX=1;exitY=1;exitDx=0;exitDy=0;entryX=0.25;entryY=0;entryDx=0;entryDy=0;entryPerimeter=0;sketch=1;curveFitting=1;jiggle=2;" edge="1" parent="1" source="NMuV9sKj-YbLztwORmE9-18" target="NMuV9sKj-YbLztwORmE9-23">
          <mxGeometry width="50" height="50" relative="1" as="geometry">
            <mxPoint x="440" y="330" as="sourcePoint" />
            <mxPoint x="490" y="280" as="targetPoint" />
          </mxGeometry>
        </mxCell>
        <mxCell id="NMuV9sKj-YbLztwORmE9-25" value="" style="endArrow=none;html=1;rounded=0;sketch=1;curveFitting=1;jiggle=2;exitX=0.213;exitY=1;exitDx=0;exitDy=0;exitPerimeter=0;entryX=0.603;entryY=-0.072;entryDx=0;entryDy=0;entryPerimeter=0;" edge="1" parent="1" target="NMuV9sKj-YbLztwORmE9-26" source="NMuV9sKj-YbLztwORmE9-18">
          <mxGeometry width="50" height="50" relative="1" as="geometry">
            <mxPoint x="128.5" y="433" as="sourcePoint" />
            <mxPoint x="96.5" y="490" as="targetPoint" />
          </mxGeometry>
        </mxCell>
        <mxCell id="NMuV9sKj-YbLztwORmE9-26" value="NIL" style="text;html=1;align=center;verticalAlign=middle;resizable=0;points=[];autosize=1;strokeColor=none;fillColor=none;rounded=0;fontFamily=Comic Sans MS;" vertex="1" parent="1">
          <mxGeometry x="71.5" y="490" width="50" height="30" as="geometry" />
        </mxCell>
        <mxCell id="NMuV9sKj-YbLztwORmE9-27" value="" style="endArrow=none;dashed=1;html=1;rounded=0;entryX=0.275;entryY=0.989;entryDx=0;entryDy=0;entryPerimeter=0;sketch=1;curveFitting=1;jiggle=2;" edge="1" parent="1" target="NMuV9sKj-YbLztwORmE9-23">
          <mxGeometry width="50" height="50" relative="1" as="geometry">
            <mxPoint x="140" y="580" as="sourcePoint" />
            <mxPoint x="370" y="390" as="targetPoint" />
          </mxGeometry>
        </mxCell>
        <mxCell id="NMuV9sKj-YbLztwORmE9-28" value="" style="endArrow=none;dashed=1;html=1;rounded=0;entryX=1;entryY=0.75;entryDx=0;entryDy=0;entryPerimeter=0;sketch=1;curveFitting=1;jiggle=2;" edge="1" parent="1" target="NMuV9sKj-YbLztwORmE9-23">
          <mxGeometry width="50" height="50" relative="1" as="geometry">
            <mxPoint x="220" y="590" as="sourcePoint" />
            <mxPoint x="181" y="530" as="targetPoint" />
          </mxGeometry>
        </mxCell>
        <mxCell id="NMuV9sKj-YbLztwORmE9-29" value="" style="shape=flexArrow;endArrow=classic;html=1;rounded=0;" edge="1" parent="1">
          <mxGeometry width="50" height="50" relative="1" as="geometry">
            <mxPoint x="190" y="440" as="sourcePoint" />
            <mxPoint x="320" y="440" as="targetPoint" />
          </mxGeometry>
        </mxCell>
        <mxCell id="NMuV9sKj-YbLztwORmE9-30" value="&lt;font face=&quot;Comic Sans MS&quot;&gt;Delete z&lt;/font&gt;" style="edgeLabel;html=1;align=center;verticalAlign=middle;resizable=0;points=[];" vertex="1" connectable="0" parent="NMuV9sKj-YbLztwORmE9-29">
          <mxGeometry x="0.0658" y="3" relative="1" as="geometry">
            <mxPoint as="offset" />
          </mxGeometry>
        </mxCell>
        <mxCell id="NMuV9sKj-YbLztwORmE9-43" value="&lt;font face=&quot;Comic Sans MS&quot;&gt;y&lt;/font&gt;" style="ellipse;whiteSpace=wrap;html=1;aspect=fixed;sketch=1;curveFitting=1;jiggle=2;" vertex="1" parent="1">
          <mxGeometry x="375" y="320" width="40" height="40" as="geometry" />
        </mxCell>
        <mxCell id="NMuV9sKj-YbLztwORmE9-44" value="&lt;font face=&quot;Comic Sans MS&quot;&gt;r&lt;/font&gt;" style="ellipse;whiteSpace=wrap;html=1;aspect=fixed;sketch=1;curveFitting=1;jiggle=2;" vertex="1" parent="1">
          <mxGeometry x="415" y="400" width="40" height="40" as="geometry" />
        </mxCell>
        <mxCell id="NMuV9sKj-YbLztwORmE9-45" value="" style="endArrow=none;html=1;rounded=0;exitX=0.5;exitY=0;exitDx=0;exitDy=0;sketch=1;curveFitting=1;jiggle=2;" edge="1" parent="1" source="NMuV9sKj-YbLztwORmE9-43">
          <mxGeometry width="50" height="50" relative="1" as="geometry">
            <mxPoint x="735" y="430" as="sourcePoint" />
            <mxPoint x="395" y="260" as="targetPoint" />
          </mxGeometry>
        </mxCell>
        <mxCell id="NMuV9sKj-YbLztwORmE9-46" value="" style="endArrow=none;html=1;rounded=0;sketch=1;curveFitting=1;jiggle=2;exitX=0.689;exitY=0.885;exitDx=0;exitDy=0;exitPerimeter=0;entryX=0.292;entryY=0.161;entryDx=0;entryDy=0;entryPerimeter=0;" edge="1" parent="1" source="NMuV9sKj-YbLztwORmE9-43" target="NMuV9sKj-YbLztwORmE9-44">
          <mxGeometry width="50" height="50" relative="1" as="geometry">
            <mxPoint x="735" y="430" as="sourcePoint" />
            <mxPoint x="785" y="380" as="targetPoint" />
          </mxGeometry>
        </mxCell>
        <mxCell id="NMuV9sKj-YbLztwORmE9-47" value="" style="endArrow=none;html=1;rounded=0;sketch=1;curveFitting=1;jiggle=2;exitX=0.051;exitY=0.816;exitDx=0;exitDy=0;exitPerimeter=0;entryX=0.706;entryY=-0.046;entryDx=0;entryDy=0;entryPerimeter=0;" edge="1" parent="1" source="NMuV9sKj-YbLztwORmE9-43" target="NMuV9sKj-YbLztwORmE9-48">
          <mxGeometry width="50" height="50" relative="1" as="geometry">
            <mxPoint x="413" y="365" as="sourcePoint" />
            <mxPoint x="350" y="408" as="targetPoint" />
          </mxGeometry>
        </mxCell>
        <mxCell id="NMuV9sKj-YbLztwORmE9-48" value="&lt;font&gt;l&lt;/font&gt;" style="ellipse;whiteSpace=wrap;html=1;aspect=fixed;sketch=1;curveFitting=1;jiggle=2;fontFamily=Comic Sans MS;" vertex="1" parent="1">
          <mxGeometry x="335" y="400" width="40" height="40" as="geometry" />
        </mxCell>
        <mxCell id="NMuV9sKj-YbLztwORmE9-53" value="" style="endArrow=none;dashed=1;html=1;rounded=0;entryX=0;entryY=1;entryDx=0;entryDy=0;sketch=1;curveFitting=1;jiggle=2;" edge="1" parent="1" target="NMuV9sKj-YbLztwORmE9-44">
          <mxGeometry width="50" height="50" relative="1" as="geometry">
            <mxPoint x="370" y="520" as="sourcePoint" />
            <mxPoint x="465.9999999999998" y="519.56" as="targetPoint" />
          </mxGeometry>
        </mxCell>
        <mxCell id="NMuV9sKj-YbLztwORmE9-54" value="" style="endArrow=none;dashed=1;html=1;rounded=0;entryX=0.986;entryY=0.747;entryDx=0;entryDy=0;entryPerimeter=0;sketch=1;curveFitting=1;jiggle=2;" edge="1" parent="1" target="NMuV9sKj-YbLztwORmE9-44">
          <mxGeometry width="50" height="50" relative="1" as="geometry">
            <mxPoint x="490" y="520" as="sourcePoint" />
            <mxPoint x="494.9999999999998" y="510" as="targetPoint" />
          </mxGeometry>
        </mxCell>
        <mxCell id="NMuV9sKj-YbLztwORmE9-55" value="&lt;font face=&quot;Comic Sans MS&quot;&gt;z&lt;/font&gt;" style="ellipse;whiteSpace=wrap;html=1;aspect=fixed;sketch=1;curveFitting=1;jiggle=2;" vertex="1" parent="1">
          <mxGeometry x="80" y="640" width="40" height="40" as="geometry" />
        </mxCell>
        <mxCell id="NMuV9sKj-YbLztwORmE9-56" value="&lt;font face=&quot;Comic Sans MS&quot;&gt;r&lt;/font&gt;" style="ellipse;whiteSpace=wrap;html=1;aspect=fixed;sketch=1;curveFitting=1;jiggle=2;" vertex="1" parent="1">
          <mxGeometry x="120" y="720" width="40" height="40" as="geometry" />
        </mxCell>
        <mxCell id="NMuV9sKj-YbLztwORmE9-57" value="" style="endArrow=none;html=1;rounded=0;exitX=0.5;exitY=0;exitDx=0;exitDy=0;sketch=1;curveFitting=1;jiggle=2;" edge="1" parent="1" source="NMuV9sKj-YbLztwORmE9-55">
          <mxGeometry width="50" height="50" relative="1" as="geometry">
            <mxPoint x="440" y="750" as="sourcePoint" />
            <mxPoint x="100" y="580" as="targetPoint" />
          </mxGeometry>
        </mxCell>
        <mxCell id="NMuV9sKj-YbLztwORmE9-58" value="" style="endArrow=none;html=1;rounded=0;sketch=1;curveFitting=1;jiggle=2;exitX=0.689;exitY=0.885;exitDx=0;exitDy=0;exitPerimeter=0;entryX=0.292;entryY=0.161;entryDx=0;entryDy=0;entryPerimeter=0;" edge="1" parent="1" source="NMuV9sKj-YbLztwORmE9-55" target="NMuV9sKj-YbLztwORmE9-56">
          <mxGeometry width="50" height="50" relative="1" as="geometry">
            <mxPoint x="440" y="750" as="sourcePoint" />
            <mxPoint x="490" y="700" as="targetPoint" />
          </mxGeometry>
        </mxCell>
        <mxCell id="NMuV9sKj-YbLztwORmE9-59" value="" style="endArrow=none;html=1;rounded=0;sketch=1;curveFitting=1;jiggle=2;exitX=0.051;exitY=0.816;exitDx=0;exitDy=0;exitPerimeter=0;entryX=0.706;entryY=-0.046;entryDx=0;entryDy=0;entryPerimeter=0;" edge="1" parent="1" source="NMuV9sKj-YbLztwORmE9-55" target="NMuV9sKj-YbLztwORmE9-60">
          <mxGeometry width="50" height="50" relative="1" as="geometry">
            <mxPoint x="118" y="685" as="sourcePoint" />
            <mxPoint x="55" y="728" as="targetPoint" />
          </mxGeometry>
        </mxCell>
        <mxCell id="NMuV9sKj-YbLztwORmE9-60" value="&lt;font&gt;l&lt;/font&gt;" style="ellipse;whiteSpace=wrap;html=1;aspect=fixed;sketch=1;curveFitting=1;jiggle=2;fontFamily=Comic Sans MS;" vertex="1" parent="1">
          <mxGeometry x="40" y="720" width="40" height="40" as="geometry" />
        </mxCell>
        <mxCell id="NMuV9sKj-YbLztwORmE9-63" value="" style="endArrow=none;html=1;rounded=0;sketch=1;curveFitting=1;jiggle=2;exitX=0.213;exitY=1;exitDx=0;exitDy=0;exitPerimeter=0;entryX=0.706;entryY=0.006;entryDx=0;entryDy=0;entryPerimeter=0;" edge="1" parent="1" source="NMuV9sKj-YbLztwORmE9-56" target="NMuV9sKj-YbLztwORmE9-67">
          <mxGeometry width="50" height="50" relative="1" as="geometry">
            <mxPoint x="128.5" y="753" as="sourcePoint" />
            <mxPoint x="101.64999999999986" y="807.8399999999999" as="targetPoint" />
          </mxGeometry>
        </mxCell>
        <mxCell id="NMuV9sKj-YbLztwORmE9-67" value="&lt;font face=&quot;Comic Sans MS&quot;&gt;y&lt;/font&gt;" style="ellipse;whiteSpace=wrap;html=1;aspect=fixed;sketch=1;curveFitting=1;jiggle=2;" vertex="1" parent="1">
          <mxGeometry x="80" y="800" width="40" height="40" as="geometry" />
        </mxCell>
        <mxCell id="NMuV9sKj-YbLztwORmE9-68" value="" style="endArrow=none;dashed=1;html=1;rounded=0;entryX=0.999;entryY=0.799;entryDx=0;entryDy=0;entryPerimeter=0;sketch=1;curveFitting=1;jiggle=2;" edge="1" parent="1" target="NMuV9sKj-YbLztwORmE9-56">
          <mxGeometry width="50" height="50" relative="1" as="geometry">
            <mxPoint x="180" y="820" as="sourcePoint" />
            <mxPoint x="170" y="770" as="targetPoint" />
          </mxGeometry>
        </mxCell>
        <mxCell id="NMuV9sKj-YbLztwORmE9-69" value="&lt;font face=&quot;Comic Sans MS&quot;&gt;x&lt;/font&gt;" style="ellipse;whiteSpace=wrap;html=1;aspect=fixed;sketch=1;curveFitting=1;jiggle=2;" vertex="1" parent="1">
          <mxGeometry x="120" y="880" width="40" height="40" as="geometry" />
        </mxCell>
        <mxCell id="NMuV9sKj-YbLztwORmE9-71" value="" style="endArrow=none;html=1;rounded=0;sketch=1;curveFitting=1;jiggle=2;exitX=0.775;exitY=1.041;exitDx=0;exitDy=0;exitPerimeter=0;entryX=0.25;entryY=0;entryDx=0;entryDy=0;entryPerimeter=0;" edge="1" parent="1" source="NMuV9sKj-YbLztwORmE9-67" target="NMuV9sKj-YbLztwORmE9-69">
          <mxGeometry width="50" height="50" relative="1" as="geometry">
            <mxPoint x="150" y="830" as="sourcePoint" />
            <mxPoint x="174" y="881" as="targetPoint" />
          </mxGeometry>
        </mxCell>
        <mxCell id="NMuV9sKj-YbLztwORmE9-72" value="" style="endArrow=none;dashed=1;html=1;rounded=0;entryX=0.275;entryY=0.937;entryDx=0;entryDy=0;entryPerimeter=0;sketch=1;curveFitting=1;jiggle=2;" edge="1" parent="1" target="NMuV9sKj-YbLztwORmE9-69">
          <mxGeometry width="50" height="50" relative="1" as="geometry">
            <mxPoint x="90.5" y="980" as="sourcePoint" />
            <mxPoint x="121.5" y="920" as="targetPoint" />
          </mxGeometry>
        </mxCell>
        <mxCell id="NMuV9sKj-YbLztwORmE9-73" value="" style="endArrow=none;dashed=1;html=1;rounded=0;entryX=0.93;entryY=0.747;entryDx=0;entryDy=0;entryPerimeter=0;sketch=1;curveFitting=1;jiggle=2;" edge="1" parent="1" target="NMuV9sKj-YbLztwORmE9-69">
          <mxGeometry width="50" height="50" relative="1" as="geometry">
            <mxPoint x="170" y="980" as="sourcePoint" />
            <mxPoint x="141" y="927" as="targetPoint" />
          </mxGeometry>
        </mxCell>
        <mxCell id="NMuV9sKj-YbLztwORmE9-74" value="" style="endArrow=none;html=1;rounded=0;sketch=1;curveFitting=1;jiggle=2;exitX=0.258;exitY=0.937;exitDx=0;exitDy=0;exitPerimeter=0;entryX=0.603;entryY=-0.072;entryDx=0;entryDy=0;entryPerimeter=0;" edge="1" parent="1" target="NMuV9sKj-YbLztwORmE9-75" source="NMuV9sKj-YbLztwORmE9-67">
          <mxGeometry width="50" height="50" relative="1" as="geometry">
            <mxPoint x="82.5" y="840" as="sourcePoint" />
            <mxPoint x="50" y="890" as="targetPoint" />
          </mxGeometry>
        </mxCell>
        <mxCell id="NMuV9sKj-YbLztwORmE9-75" value="NIL" style="text;html=1;align=center;verticalAlign=middle;resizable=0;points=[];autosize=1;strokeColor=none;fillColor=none;rounded=0;fontFamily=Comic Sans MS;" vertex="1" parent="1">
          <mxGeometry x="25" y="890" width="50" height="30" as="geometry" />
        </mxCell>
        <mxCell id="NMuV9sKj-YbLztwORmE9-76" value="" style="shape=flexArrow;endArrow=classic;html=1;rounded=0;" edge="1" parent="1">
          <mxGeometry width="50" height="50" relative="1" as="geometry">
            <mxPoint x="210" y="750" as="sourcePoint" />
            <mxPoint x="340" y="750" as="targetPoint" />
          </mxGeometry>
        </mxCell>
        <mxCell id="NMuV9sKj-YbLztwORmE9-77" value="&lt;font face=&quot;Comic Sans MS&quot;&gt;split&lt;/font&gt;" style="edgeLabel;html=1;align=center;verticalAlign=middle;resizable=0;points=[];" vertex="1" connectable="0" parent="NMuV9sKj-YbLztwORmE9-76">
          <mxGeometry x="0.0658" y="3" relative="1" as="geometry">
            <mxPoint as="offset" />
          </mxGeometry>
        </mxCell>
        <mxCell id="NMuV9sKj-YbLztwORmE9-78" value="&lt;font face=&quot;Comic Sans MS&quot;&gt;z&lt;/font&gt;" style="ellipse;whiteSpace=wrap;html=1;aspect=fixed;sketch=1;curveFitting=1;jiggle=2;" vertex="1" parent="1">
          <mxGeometry x="385" y="680" width="40" height="40" as="geometry" />
        </mxCell>
        <mxCell id="NMuV9sKj-YbLztwORmE9-79" value="" style="endArrow=none;html=1;rounded=0;exitX=0.5;exitY=0;exitDx=0;exitDy=0;sketch=1;curveFitting=1;jiggle=2;" edge="1" parent="1" source="NMuV9sKj-YbLztwORmE9-78">
          <mxGeometry width="50" height="50" relative="1" as="geometry">
            <mxPoint x="745" y="790" as="sourcePoint" />
            <mxPoint x="405" y="620" as="targetPoint" />
          </mxGeometry>
        </mxCell>
        <mxCell id="NMuV9sKj-YbLztwORmE9-80" value="" style="endArrow=none;html=1;rounded=0;sketch=1;curveFitting=1;jiggle=2;exitX=0.051;exitY=0.816;exitDx=0;exitDy=0;exitPerimeter=0;entryX=0.706;entryY=-0.046;entryDx=0;entryDy=0;entryPerimeter=0;" edge="1" parent="1" source="NMuV9sKj-YbLztwORmE9-78" target="NMuV9sKj-YbLztwORmE9-81">
          <mxGeometry width="50" height="50" relative="1" as="geometry">
            <mxPoint x="423" y="725" as="sourcePoint" />
            <mxPoint x="360" y="768" as="targetPoint" />
          </mxGeometry>
        </mxCell>
        <mxCell id="NMuV9sKj-YbLztwORmE9-81" value="&lt;font&gt;l&lt;/font&gt;" style="ellipse;whiteSpace=wrap;html=1;aspect=fixed;sketch=1;curveFitting=1;jiggle=2;fontFamily=Comic Sans MS;" vertex="1" parent="1">
          <mxGeometry x="345" y="760" width="40" height="40" as="geometry" />
        </mxCell>
        <mxCell id="NMuV9sKj-YbLztwORmE9-82" value="&lt;font face=&quot;Comic Sans MS&quot;&gt;y&lt;/font&gt;" style="ellipse;whiteSpace=wrap;html=1;aspect=fixed;sketch=1;curveFitting=1;jiggle=2;" vertex="1" parent="1">
          <mxGeometry x="490" y="700" width="40" height="40" as="geometry" />
        </mxCell>
        <mxCell id="NMuV9sKj-YbLztwORmE9-83" value="" style="endArrow=none;html=1;rounded=0;sketch=1;curveFitting=1;jiggle=2;exitX=0.853;exitY=0.972;exitDx=0;exitDy=0;exitPerimeter=0;entryX=0.318;entryY=0.006;entryDx=0;entryDy=0;entryPerimeter=0;" edge="1" parent="1" source="NMuV9sKj-YbLztwORmE9-82" target="NMuV9sKj-YbLztwORmE9-84">
          <mxGeometry width="50" height="50" relative="1" as="geometry">
            <mxPoint x="498.5" y="733" as="sourcePoint" />
            <mxPoint x="471.64999999999986" y="787.8399999999999" as="targetPoint" />
          </mxGeometry>
        </mxCell>
        <mxCell id="NMuV9sKj-YbLztwORmE9-84" value="&lt;font face=&quot;Comic Sans MS&quot;&gt;r&lt;/font&gt;" style="ellipse;whiteSpace=wrap;html=1;aspect=fixed;sketch=1;curveFitting=1;jiggle=2;" vertex="1" parent="1">
          <mxGeometry x="530" y="780" width="40" height="40" as="geometry" />
        </mxCell>
        <mxCell id="NMuV9sKj-YbLztwORmE9-86" value="&lt;font face=&quot;Comic Sans MS&quot;&gt;x&lt;/font&gt;" style="ellipse;whiteSpace=wrap;html=1;aspect=fixed;sketch=1;curveFitting=1;jiggle=2;" vertex="1" parent="1">
          <mxGeometry x="490" y="860" width="40" height="40" as="geometry" />
        </mxCell>
        <mxCell id="NMuV9sKj-YbLztwORmE9-87" value="" style="endArrow=none;html=1;rounded=0;sketch=1;curveFitting=1;jiggle=2;exitX=0.232;exitY=1.006;exitDx=0;exitDy=0;exitPerimeter=0;entryX=0.646;entryY=-0.028;entryDx=0;entryDy=0;entryPerimeter=0;" edge="1" parent="1" source="NMuV9sKj-YbLztwORmE9-84" target="NMuV9sKj-YbLztwORmE9-86">
          <mxGeometry width="50" height="50" relative="1" as="geometry">
            <mxPoint x="520" y="810" as="sourcePoint" />
            <mxPoint x="544" y="861" as="targetPoint" />
          </mxGeometry>
        </mxCell>
        <mxCell id="NMuV9sKj-YbLztwORmE9-88" value="" style="endArrow=none;dashed=1;html=1;rounded=0;entryX=0.275;entryY=0.937;entryDx=0;entryDy=0;entryPerimeter=0;sketch=1;curveFitting=1;jiggle=2;" edge="1" parent="1" target="NMuV9sKj-YbLztwORmE9-86">
          <mxGeometry width="50" height="50" relative="1" as="geometry">
            <mxPoint x="460.5" y="960" as="sourcePoint" />
            <mxPoint x="491.5" y="900" as="targetPoint" />
          </mxGeometry>
        </mxCell>
        <mxCell id="NMuV9sKj-YbLztwORmE9-89" value="" style="endArrow=none;dashed=1;html=1;rounded=0;entryX=0.93;entryY=0.747;entryDx=0;entryDy=0;entryPerimeter=0;sketch=1;curveFitting=1;jiggle=2;" edge="1" parent="1" target="NMuV9sKj-YbLztwORmE9-86">
          <mxGeometry width="50" height="50" relative="1" as="geometry">
            <mxPoint x="540" y="960" as="sourcePoint" />
            <mxPoint x="511" y="907" as="targetPoint" />
          </mxGeometry>
        </mxCell>
        <mxCell id="NMuV9sKj-YbLztwORmE9-90" value="" style="endArrow=none;html=1;rounded=0;sketch=1;curveFitting=1;jiggle=2;exitX=0.266;exitY=0.903;exitDx=0;exitDy=0;exitPerimeter=0;entryX=0.603;entryY=-0.072;entryDx=0;entryDy=0;entryPerimeter=0;" edge="1" parent="1" target="NMuV9sKj-YbLztwORmE9-91" source="NMuV9sKj-YbLztwORmE9-82">
          <mxGeometry width="50" height="50" relative="1" as="geometry">
            <mxPoint x="490" y="750" as="sourcePoint" />
            <mxPoint x="450" y="803" as="targetPoint" />
          </mxGeometry>
        </mxCell>
        <mxCell id="NMuV9sKj-YbLztwORmE9-91" value="NIL" style="text;html=1;align=center;verticalAlign=middle;resizable=0;points=[];autosize=1;strokeColor=none;fillColor=none;rounded=0;fontFamily=Comic Sans MS;" vertex="1" parent="1">
          <mxGeometry x="425" y="803" width="50" height="30" as="geometry" />
        </mxCell>
        <mxCell id="NMuV9sKj-YbLztwORmE9-92" value="" style="shape=flexArrow;endArrow=classic;html=1;rounded=0;" edge="1" parent="1">
          <mxGeometry width="50" height="50" relative="1" as="geometry">
            <mxPoint x="580" y="759.31" as="sourcePoint" />
            <mxPoint x="710" y="759.31" as="targetPoint" />
          </mxGeometry>
        </mxCell>
        <mxCell id="NMuV9sKj-YbLztwORmE9-93" value="&lt;font face=&quot;Comic Sans MS&quot;&gt;Delete z&lt;/font&gt;" style="edgeLabel;html=1;align=center;verticalAlign=middle;resizable=0;points=[];" vertex="1" connectable="0" parent="NMuV9sKj-YbLztwORmE9-92">
          <mxGeometry x="0.0658" y="3" relative="1" as="geometry">
            <mxPoint as="offset" />
          </mxGeometry>
        </mxCell>
        <mxCell id="NMuV9sKj-YbLztwORmE9-97" value="&lt;font face=&quot;Comic Sans MS&quot;&gt;y&lt;/font&gt;" style="ellipse;whiteSpace=wrap;html=1;aspect=fixed;sketch=1;curveFitting=1;jiggle=2;" vertex="1" parent="1">
          <mxGeometry x="784.42" y="688" width="40" height="40" as="geometry" />
        </mxCell>
        <mxCell id="NMuV9sKj-YbLztwORmE9-98" value="" style="endArrow=none;html=1;rounded=0;sketch=1;curveFitting=1;jiggle=2;exitX=0.853;exitY=0.972;exitDx=0;exitDy=0;exitPerimeter=0;entryX=0.318;entryY=0.006;entryDx=0;entryDy=0;entryPerimeter=0;" edge="1" parent="1" source="NMuV9sKj-YbLztwORmE9-97" target="NMuV9sKj-YbLztwORmE9-99">
          <mxGeometry width="50" height="50" relative="1" as="geometry">
            <mxPoint x="792.92" y="721" as="sourcePoint" />
            <mxPoint x="766.0699999999998" y="775.8399999999999" as="targetPoint" />
          </mxGeometry>
        </mxCell>
        <mxCell id="NMuV9sKj-YbLztwORmE9-99" value="&lt;font face=&quot;Comic Sans MS&quot;&gt;r&lt;/font&gt;" style="ellipse;whiteSpace=wrap;html=1;aspect=fixed;sketch=1;curveFitting=1;jiggle=2;" vertex="1" parent="1">
          <mxGeometry x="824.42" y="768" width="40" height="40" as="geometry" />
        </mxCell>
        <mxCell id="NMuV9sKj-YbLztwORmE9-100" value="&lt;font face=&quot;Comic Sans MS&quot;&gt;x&lt;/font&gt;" style="ellipse;whiteSpace=wrap;html=1;aspect=fixed;sketch=1;curveFitting=1;jiggle=2;" vertex="1" parent="1">
          <mxGeometry x="784.42" y="848" width="40" height="40" as="geometry" />
        </mxCell>
        <mxCell id="NMuV9sKj-YbLztwORmE9-101" value="" style="endArrow=none;html=1;rounded=0;sketch=1;curveFitting=1;jiggle=2;exitX=0.232;exitY=1.006;exitDx=0;exitDy=0;exitPerimeter=0;entryX=0.646;entryY=-0.028;entryDx=0;entryDy=0;entryPerimeter=0;" edge="1" parent="1" source="NMuV9sKj-YbLztwORmE9-99" target="NMuV9sKj-YbLztwORmE9-100">
          <mxGeometry width="50" height="50" relative="1" as="geometry">
            <mxPoint x="814.42" y="798" as="sourcePoint" />
            <mxPoint x="838.42" y="849" as="targetPoint" />
          </mxGeometry>
        </mxCell>
        <mxCell id="NMuV9sKj-YbLztwORmE9-102" value="" style="endArrow=none;dashed=1;html=1;rounded=0;entryX=0.275;entryY=0.937;entryDx=0;entryDy=0;entryPerimeter=0;sketch=1;curveFitting=1;jiggle=2;" edge="1" parent="1" target="NMuV9sKj-YbLztwORmE9-100">
          <mxGeometry width="50" height="50" relative="1" as="geometry">
            <mxPoint x="754.92" y="948" as="sourcePoint" />
            <mxPoint x="785.92" y="888" as="targetPoint" />
          </mxGeometry>
        </mxCell>
        <mxCell id="NMuV9sKj-YbLztwORmE9-103" value="" style="endArrow=none;dashed=1;html=1;rounded=0;entryX=0.93;entryY=0.747;entryDx=0;entryDy=0;entryPerimeter=0;sketch=1;curveFitting=1;jiggle=2;" edge="1" parent="1" target="NMuV9sKj-YbLztwORmE9-100">
          <mxGeometry width="50" height="50" relative="1" as="geometry">
            <mxPoint x="834.42" y="948" as="sourcePoint" />
            <mxPoint x="805.42" y="895" as="targetPoint" />
          </mxGeometry>
        </mxCell>
        <mxCell id="NMuV9sKj-YbLztwORmE9-104" value="" style="endArrow=none;html=1;rounded=0;sketch=1;curveFitting=1;jiggle=2;exitX=0.266;exitY=0.903;exitDx=0;exitDy=0;exitPerimeter=0;entryX=0.706;entryY=0.043;entryDx=0;entryDy=0;entryPerimeter=0;" edge="1" parent="1" source="NMuV9sKj-YbLztwORmE9-97" target="NMuV9sKj-YbLztwORmE9-106">
          <mxGeometry width="50" height="50" relative="1" as="geometry">
            <mxPoint x="784.42" y="738" as="sourcePoint" />
            <mxPoint x="749.57" y="788.8399999999999" as="targetPoint" />
          </mxGeometry>
        </mxCell>
        <mxCell id="NMuV9sKj-YbLztwORmE9-105" value="NIL" style="text;html=1;align=center;verticalAlign=middle;resizable=0;points=[];autosize=1;strokeColor=none;fillColor=none;rounded=0;fontFamily=Comic Sans MS;" vertex="1" parent="1">
          <mxGeometry x="782" y="793" width="50" height="30" as="geometry" />
        </mxCell>
        <mxCell id="NMuV9sKj-YbLztwORmE9-106" value="&lt;font&gt;l&lt;/font&gt;" style="ellipse;whiteSpace=wrap;html=1;aspect=fixed;sketch=1;curveFitting=1;jiggle=2;fontFamily=Comic Sans MS;" vertex="1" parent="1">
          <mxGeometry x="720" y="793" width="40" height="40" as="geometry" />
        </mxCell>
        <mxCell id="NMuV9sKj-YbLztwORmE9-107" value="" style="endArrow=none;html=1;rounded=0;exitX=0.5;exitY=0;exitDx=0;exitDy=0;sketch=1;curveFitting=1;jiggle=2;" edge="1" parent="1" source="NMuV9sKj-YbLztwORmE9-97">
          <mxGeometry width="50" height="50" relative="1" as="geometry">
            <mxPoint x="804.0799999999999" y="680" as="sourcePoint" />
            <mxPoint x="804.0799999999999" y="620" as="targetPoint" />
          </mxGeometry>
        </mxCell>
        <mxCell id="NMuV9sKj-YbLztwORmE9-108" value="" style="endArrow=none;dashed=1;html=1;rounded=0;entryX=1;entryY=1;entryDx=0;entryDy=0;sketch=1;curveFitting=1;jiggle=2;" edge="1" parent="1" target="NMuV9sKj-YbLztwORmE9-99">
          <mxGeometry width="50" height="50" relative="1" as="geometry">
            <mxPoint x="877.4200000000001" y="880" as="sourcePoint" />
            <mxPoint x="864.4200000000001" y="810" as="targetPoint" />
          </mxGeometry>
        </mxCell>
      </root>
    </mxGraphModel>
  </diagram>
</mxfile>
